<?xml version="1.0" encoding="utf-8"?>
<!-- Generator: Adobe Illustrator 16.0.0, SVG Export Plug-In . SVG Version: 6.00 Build 0)  -->
<!DOCTYPE svg PUBLIC "-//W3C//DTD SVG 1.1//EN" "http://www.w3.org/Graphics/SVG/1.1/DTD/svg11.dtd">
<svg version="1.1" id="b8ea24f2-0d0e-4134-9f6b-a081050070ad"
	 xmlns="http://www.w3.org/2000/svg" xmlns:xlink="http://www.w3.org/1999/xlink" x="0px" y="0px" width="783.928px"
	 height="868.734px" viewBox="0 0 783.928 868.734" enable-background="new 0 0 783.928 868.734" xml:space="preserve">
<title>enter</title>
<path fill="#3A5064" d="M533.24,538.197c427.438,285.996,288.52,392.564-266.62,295.504C121.57,808.34,0,701.399,0,538.197
	c0-163.203,119.37-295.505,266.62-295.505S397.601,447.44,533.24,538.197z"/>
<ellipse opacity="0.1" enable-background="new    " cx="571.456" cy="801.706" rx="168.859" ry="15.109"/>
<ellipse opacity="0.1" enable-background="new    " cx="238.428" cy="303.706" rx="89.5" ry="15.109"/>
<path opacity="0.1" enable-background="new    " d="M233.737,340.899c-78.373-0.016-149.792,44.969-183.63,115.66
	c38.542-42.58,93.314-66.844,150.747-66.779c112.398,0,203.52,91.121,203.52,203.52c0.046,30.408-6.752,60.437-19.89,87.86
	c34.024-37.406,52.846-86.175,52.772-136.74C437.257,432.021,346.135,340.899,233.737,340.899z"/>
<path fill="#288B6A" enable-background="new    " d="M404.374,592.411c0.046,30.408-6.752,60.437-19.89,87.86
	c-38.542,42.579-93.315,66.843-150.747,66.779c-112.398,0-203.521-91.122-203.521-203.52c-0.046-30.408,6.752-60.437,19.89-87.86
	c38.542-42.58,93.314-66.844,150.747-66.779C313.252,388.891,404.374,480.012,404.374,592.411z"/>
<path fill="#FFFFFF" d="M233.737,748.051c-112.773,0-204.521-91.747-204.521-204.52c-0.082-30.562,6.751-60.746,19.988-88.293
	C83.209,384.2,154.98,338.995,233.737,339.01c112.773,0,204.52,91.748,204.52,204.521c0.008,112.945-91.547,204.512-204.492,204.52
	C233.755,748.051,233.747,748.051,233.737,748.051z M233.737,341.01c-77.489,0-149.215,45.177-182.729,115.093
	c-13.107,27.276-19.874,57.165-19.792,87.428c0,111.67,90.85,202.52,202.521,202.52c111.841,0.008,202.512-90.65,202.52-202.491
	c0-0.009,0-0.019,0-0.028C436.257,431.861,345.407,341.01,233.737,341.01L233.737,341.01z"/>
<path fill="#D0CDE1" d="M699.355,750.635c-14.781,19.332-13.091,45.458-13.091,45.458s25.655-5.216,40.438-24.548
	c14.781-19.332,13.091-45.458,13.091-45.458S714.138,731.303,699.355,750.635z"/>
<path fill="#288B6A" d="M709.042,754.976c-2.868,24.166-22.285,41.728-22.285,41.728s-14.768-21.619-11.898-45.785
	c2.868-24.165,22.286-41.727,22.286-41.727S711.911,730.811,709.042,754.976z"/>
<circle fill="#FF6584" cx="172.828" cy="104.91" r="83.979"/>
<path fill="#288B6A" d="M354.901,190.533c0.041,83.884-49.813,113.194-111.324,113.224c-1.429,0.001-2.851-0.015-4.266-0.046
	c-2.851-0.06-5.672-0.188-8.463-0.386c-55.517-3.903-98.667-34.672-98.705-112.684C132.105,109.908,235.238,7.974,242.973,0.437
	c0.006,0,0.006,0,0.013-0.007C243.28,0.143,243.43,0,243.43,0S354.86,106.655,354.901,190.533z"/>
<path fill="#3F3D56" d="M239.518,290.927l40.708-56.937l-40.807,63.185l-0.106,6.535c-2.851-0.06-5.672-0.188-8.463-0.386
	l4.348-83.92l-0.034-0.649l0.075-0.123l0.414-7.931L194.679,147.4l41.092,57.361l0.103,1.682l3.285-63.405l-35.08-65.417
	l35.505,54.274l3.389-131.458L242.986,0V0.43l-0.523,103.668l34.864-41.114l-35.01,50.042l-0.896,56.773l32.561-54.498
	l-32.687,62.845l-0.497,31.569l47.254-75.861l-47.434,86.874L239.518,290.927z"/>
<path fill="#2F2E41" d="M572.956,238.594c-10.675-18.037-31.794-18.877-31.794-18.877s-20.579-2.632-33.78,24.838
	c-12.305,25.605-29.287,50.327-2.734,56.321l4.797-14.929l2.97,16.04c3.78,0.271,7.573,0.336,11.361,0.193
	c28.436-0.918,55.517,0.269,54.645-9.936C577.261,278.68,583.227,255.949,572.956,238.594z"/>
<polygon fill="#A0616A" points="525.862,407.844 528.608,435.302 592.22,428.437 593.593,407.844 "/>
<path fill="#2F2E41" d="M518.998,422.945l-1.831,16.018c0,0-21.052,29.289-19.221,79.63c1.83,50.341-28.832,274.128-6.865,275.958
	c21.967,1.831,61.324,4.576,63.155-2.288c1.83-6.864,5.491-267.263,5.491-267.263s9.61,267.588,26.086,268.503
	c16.475,0.915,71.85,2.746,71.85-4.119c0-6.864-48.51-313.352-48.51-313.352l-7.78-25.628l-7.779-31.578
	c0,0-48.511,8.238-61.782,5.034C518.54,420.657,518.998,422.945,518.998,422.945z"/>
<circle fill="#A0616A" cx="540.965" cy="266.889" r="29.29"/>
<path fill="#A0616A" d="M592.221,315.399l-5.561,8.091l-3.561,5.177l-5.981,8.699l-29.747,2.288c0,0-7.226-2.334-15.564-5.743
	c-3.079-1.263-6.315-2.673-9.391-4.169c-11.931-5.794-21.505-12.864-10.74-17.546c1.911-0.821,3.747-1.808,5.486-2.947
	c1.583-1.035,3.057-2.228,4.398-3.561c5.598-5.609,8.064-13.622,6.59-21.409l28.832-4.118c-0.838,7.313,6.435,15.289,14.585,21.802
	c2.677,2.146,5.455,4.128,8.068,5.876C586.486,312.425,592.221,315.399,592.221,315.399z"/>
<path fill="#D0CDE1" d="M552.863,324.094c0,0-28.146-4.806-34.552-14.873c0,0-27.688,3.432-25.399,18.076s25.17,94.732,25.17,94.732
	s57.206-10.983,78.257-2.746l12.814-102.054c0,0-4.576-10.068-13.271-7.322c-8.695,2.745-12.128,0.229-12.128,0.229
	S573.915,324.094,552.863,324.094z"/>
<path fill="#A0616A" d="M578.491,484.727c0,0,19.679,21.967,8.695,25.628s-24.255-14.645-24.255-14.645L578.491,484.727z"/>
<path fill="#A0616A" d="M584.898,486.557c0,0-16.018,10.983-10.068,18.306s26.543-6.407,26.543-9.152
	C601.373,492.965,584.898,486.557,584.898,486.557z"/>
<path fill="#2F2E41" d="M545.541,427.064l-13.271,2.288l-8.695-64.527c0.502-11.707,0.114-23.435-1.158-35.083
	c-0.97-7.78-2.59-15.258-5.254-20.493c1.583-1.035,3.057-2.228,4.398-3.561c3.186,5.048,8.997,15.738,10.247,28.223
	c0.326,3.126,0.327,6.278,0.004,9.404c-2.288,21.51-1.83,25.628-1.83,25.628L545.541,427.064z"/>
<path fill="#D0CDE1" d="M514.879,313.111c0,0-21.509-5.949-23.34,6.864c-1.83,12.814,0.458,45.765,5.492,58.121
	c5.033,12.356,22.424,52.629,22.424,52.629s31.577,40.272,32.95,49.883s8.238,19.679,8.238,19.679l21.967-14.188l-43.019-72.765
	l-18.764-50.341C520.828,362.994,528.608,317.23,514.879,313.111z"/>
<path fill="#D0CDE1" d="M599.085,314.941l10.068,2.289c0,0,9.152,39.356,5.491,60.408s-4.118,28.374-4.118,28.374l-3.204,59.951
	c0,0,0.916,38.441-5.491,32.492s-19.221-8.695-19.221-8.695s1.372-16.933,6.406-21.051c0,0,5.949-31.577,2.288-45.307
	S599.085,314.941,599.085,314.941z"/>
<path fill="#2F2E41" d="M602.746,359.333l-11.67,67.502l-7.094-2.975l12.356-64.527L583.1,328.666l-11.532-26.703
	c2.677,2.146,5.455,4.128,8.068,5.876l7.024,15.651L602.746,359.333z"/>
<polygon fill="#2F2E41" points="568.236,236.855 547.372,225.926 518.559,230.397 512.598,256.726 527.437,256.155 531.583,246.482 
	531.583,255.996 538.43,255.732 542.404,240.332 544.888,256.726 569.229,256.229 "/>
<ellipse fill="#2F2E41" cx="527.02" cy="796.374" rx="14.22" ry="5.332"/>
<ellipse fill="#2F2E41" cx="623.003" cy="796.374" rx="14.22" ry="5.332"/>
<path fill="#FFFFFF" d="M293.473,509.91c19.259,29.595,21.447,67.162,5.755,98.792l-4.49-2.201
	c23.256-47.34,3.732-104.568-43.607-127.824c-47.339-23.255-104.568-3.731-127.824,43.607
	c-23.256,47.34-3.732,104.568,43.608,127.824c14.016,6.885,29.506,10.229,45.114,9.737l0.153,4.998
	c-55.479,1.749-101.873-41.808-103.623-97.287c-1.749-55.479,41.808-101.873,97.287-103.622
	C241.099,462.822,274.354,480.271,293.473,509.91z"/>
<path fill="#FFFFFF" d="M203.054,555.138c3.272,14.785,5.267,34.463,3.184,48.801l13.707-17.999l32.499,50.389l4.202-2.71
	l-32.499-50.389l22.054-5.065C232.28,574.148,215.177,564.215,203.054,555.138z"/>
</svg>
